<svg xmlns="http://www.w3.org/2000/svg" width="100%" height="100%" viewBox="0 0 379 379" fill-rule="evenodd" stroke-linejoin="round" stroke-miterlimit="1.41421"><circle cx="189.437" cy="189.437" r="189.437" fill="#555"/><path d="M80.848 134.987h130.707l1.242 39.314h-5.535c-2.7-12.352-6.157-20.4-10.337-24.12s-12.973-5.592-26.38-5.592h-12.878v118.393c0 8.962 1.393 14.517 4.18 16.663s8.887 3.56 18.3 4.236v4.18h-67.444v-4.18c9.8-.753 15.892-2.372 18.302-4.857s3.615-8.737 3.615-18.753V144.6h-12.88c-12.803 0-21.52 1.845-26.153 5.535s-8.115 11.75-10.45 24.176h-5.65l1.356-39.314zm191.444-26.847c4.62-6.283 8.34-10.7 11.157-13.224s5.563-3.8 8.24-3.8c3.202 0 5.4 1.094 6.627 3.283.65 1.135.973 2.513.973 4.135 0 1.662-.67 3.182-2.006 4.56s-2.96 2.067-4.865 2.067c-1.175 0-2.503-.446-3.982-1.338s-2.605-1.337-3.375-1.337c-1.5 0-2.928.77-4.286 2.3s-3.7 4.804-7.023 9.8l1.155 6.08 1.52 7.7c.406 2.007.852 3.86 1.338 5.564.65 2.35 1.297 4.053 1.946 5.107s1.6 1.58 2.857 1.58c1.135 0 2.514-.83 4.135-2.493.892-.892 2.25-2.533 4.074-4.925l2.553 1.763c-2.148 3.608-4.935 7.033-8.36 10.276s-6.78 4.864-10.063 4.864c-2.756 0-5.026-1.135-6.8-3.405-1.013-1.216-1.905-2.878-2.675-4.986-.405-1.094-.963-3.03-1.672-5.806l-1.368-5.138-.85 1.46c-4.013 6.9-6.952 11.37-8.817 13.437-2.796 3.08-6.04 4.62-9.728 4.62a7.85 7.85 0 0 1-5.503-2.158c-1.56-1.44-2.34-3.212-2.34-5.32 0-1.743.577-3.355 1.732-4.834s2.767-2.22 4.834-2.22c1.257 0 2.807.446 4.652 1.337s3.05 1.338 3.617 1.338c1.257 0 2.34-.557 3.253-1.672s2.706-3.88 5.38-8.3l2.432-4.013c-.405-1.702-.84-3.8-1.307-6.262l-2.402-12.77c-.7-3.73-1.783-6.18-3.283-7.357-.85-.7-2.25-1.033-4.195-1.033-.203 0-.7.03-1.46.1l-2.3.213v-3.345c3.648-.445 7.65-1.013 12.008-1.702l8.726-1.46c1.216 1.62 2.22 3.587 3 5.898s1.4 4.762 1.794 7.357l.67 4.073z" fill="#fff" fill-rule="nonzero"/></svg>