<?xml version="1.0" encoding="UTF-8" standalone="no"?><!DOCTYPE svg PUBLIC "-//W3C//DTD SVG 1.1//EN" "http://www.w3.org/Graphics/SVG/1.1/DTD/svg11.dtd"><svg width="100%" height="100%" viewBox="0 0 379 379" version="1.1" xmlns="http://www.w3.org/2000/svg" xmlns:xlink="http://www.w3.org/1999/xlink" xml:space="preserve" xmlns:serif="http://www.serif.com/" style="fill-rule:evenodd;clip-rule:evenodd;stroke-linejoin:round;stroke-miterlimit:1.41421;"><circle cx="189.437" cy="189.437" r="189.437" style="fill:#555;"/><path d="M80.848,134.987l130.707,0l1.242,39.314l-5.535,0c-2.711,-12.352 -6.157,-20.391 -10.337,-24.119c-4.18,-3.728 -12.973,-5.592 -26.379,-5.592l-12.878,0l0,118.393c0,8.962 1.393,14.517 4.18,16.663c2.786,2.146 8.887,3.559 18.301,4.236l0,4.18l-67.444,0l0,-4.18c9.791,-0.753 15.892,-2.372 18.302,-4.857c2.41,-2.486 3.615,-8.737 3.615,-18.753l0,-115.682l-12.879,0c-12.803,0 -21.521,1.845 -26.153,5.535c-4.632,3.69 -8.115,11.749 -10.449,24.176l-5.649,0l1.356,-39.314Z" style="fill:#fff;fill-rule:nonzero;"/><path d="M272.292,108.139c4.621,-6.283 8.34,-10.691 11.157,-13.224c2.817,-2.534 5.563,-3.8 8.239,-3.8c3.202,0 5.411,1.094 6.627,3.283c0.649,1.135 0.973,2.513 0.973,4.135c0,1.662 -0.669,3.182 -2.006,4.56c-1.338,1.378 -2.959,2.067 -4.865,2.067c-1.175,0 -2.503,-0.446 -3.982,-1.338c-1.48,-0.891 -2.605,-1.337 -3.375,-1.337c-1.5,0 -2.928,0.77 -4.286,2.31c-1.358,1.541 -3.699,4.804 -7.023,9.789l1.155,6.081c0.608,3.121 1.115,5.685 1.52,7.691c0.406,2.007 0.852,3.861 1.338,5.564c0.649,2.351 1.297,4.053 1.946,5.107c0.648,1.054 1.601,1.581 2.857,1.581c1.135,0 2.514,-0.831 4.135,-2.493c0.892,-0.892 2.25,-2.533 4.074,-4.925l2.553,1.763c-2.148,3.608 -4.935,7.033 -8.36,10.276c-3.425,3.243 -6.779,4.864 -10.063,4.864c-2.756,0 -5.026,-1.135 -6.81,-3.405c-1.013,-1.216 -1.905,-2.878 -2.675,-4.986c-0.405,-1.094 -0.963,-3.03 -1.672,-5.806c-0.709,-2.777 -1.165,-4.49 -1.368,-5.138l-0.851,1.459c-4.013,6.891 -6.952,11.37 -8.817,13.437c-2.796,3.081 -6.039,4.621 -9.728,4.621c-2.108,0 -3.942,-0.719 -5.503,-2.158c-1.56,-1.439 -2.34,-3.212 -2.34,-5.32c0,-1.743 0.577,-3.355 1.732,-4.834c1.156,-1.48 2.767,-2.219 4.834,-2.219c1.257,0 2.807,0.446 4.652,1.337c1.844,0.892 3.05,1.338 3.617,1.338c1.257,0 2.341,-0.557 3.253,-1.672c0.912,-1.115 2.706,-3.881 5.381,-8.3l2.432,-4.013c-0.405,-1.702 -0.841,-3.79 -1.307,-6.262c-0.466,-2.473 -0.942,-5.006 -1.429,-7.601l-0.973,-5.168c-0.689,-3.729 -1.783,-6.181 -3.283,-7.357c-0.851,-0.689 -2.25,-1.033 -4.195,-1.033c-0.203,0 -0.689,0.03 -1.46,0.091c-0.77,0.061 -1.54,0.132 -2.31,0.213l0,-3.345c3.648,-0.445 7.651,-1.013 12.008,-1.702c4.358,-0.689 7.266,-1.176 8.726,-1.459c1.216,1.621 2.219,3.587 3.009,5.898c0.791,2.31 1.389,4.762 1.794,7.357l0.669,4.073Z" style="fill:#fff;fill-rule:nonzero;"/></svg>